<svg width="69" height="69" viewBox="0 0 69 69" fill="none" xmlns="http://www.w3.org/2000/svg">
<path d="M49.145 39.8585C47.3237 39.8585 45.8418 41.3403 45.8418 43.1618C45.8418 44.9833 47.3237 46.465 49.145 46.465C50.9664 46.465 52.4483 44.9833 52.4483 43.1618C52.4483 41.3403 50.9664 39.8585 49.145 39.8585ZM49.145 44.2628C48.5378 44.2628 48.044 43.7689 48.044 43.1618C48.044 42.5545 48.5379 42.0607 49.145 42.0607C49.7523 42.0607 50.2461 42.5546 50.2461 43.1618C50.2462 43.7689 49.7523 44.2628 49.145 44.2628Z" fill="black"/>
<path d="M34.1704 42.0606C33.5632 42.0606 33.0694 41.5667 33.0694 40.9596C33.0694 40.3523 33.5633 39.8586 34.1704 39.8586C34.7786 39.8586 35.2715 39.3656 35.2715 38.7575C35.2715 38.1495 34.7786 37.6565 34.1704 37.6565C32.3489 37.6565 30.8672 39.1382 30.8672 40.9597C30.8672 42.7812 32.3489 44.263 34.1704 44.263C34.7786 44.263 35.2715 43.77 35.2715 43.1619C35.2715 42.5539 34.7786 42.0606 34.1704 42.0606Z" fill="black"/>
<path d="M27.564 39.8585C26.9567 39.8585 26.4629 39.3646 26.4629 38.7575C26.4629 38.1503 26.9569 37.6565 27.564 37.6565C28.172 37.6565 28.665 37.1635 28.665 36.5554C28.665 35.9474 28.172 35.4544 27.564 35.4544C25.7425 35.4544 24.2607 36.9362 24.2607 38.7576C24.2607 40.5791 25.7425 42.0609 27.564 42.0609C28.172 42.0609 28.665 41.5679 28.665 40.9598C28.665 40.3515 28.172 39.8585 27.564 39.8585Z" fill="black"/>
<path d="M65.6968 48.667H64.4837C64.0429 46.5044 62.3313 44.7983 60.1649 44.368C59.6456 34.6701 51.5922 26.9393 41.767 26.9393H33.8392H16.5159C13.4802 26.9393 11.0106 29.4088 11.0106 32.4446V39.1509C9.74962 37.3817 8.17017 35.7892 5.50531 35.7892C4.89725 35.7892 4.40428 36.2822 4.40428 36.8902V48.6669H3.30324C1.48175 48.667 0 50.1487 0 51.9702C0 53.7917 1.48175 55.2735 3.30324 55.2735H4.71168L5.51474 57.6828C6.43641 60.4479 9.44168 62.614 12.3563 62.614H56.6435C59.5582 62.614 62.5633 60.4481 63.4853 57.6828L64.2883 55.2735H65.6968C67.5181 55.2735 69 53.7917 69 51.9702C69 50.1487 67.5181 48.667 65.6968 48.667ZM41.767 29.1415C50.712 29.1415 57.9892 36.4188 57.9892 45.3639C57.9892 45.9719 58.4821 46.4649 59.0903 46.4649C60.5257 46.4649 61.7496 47.3855 62.204 48.667H42.7526C41.4286 47.1336 40.7037 45.1961 40.7037 43.1617V36.5553C40.7037 35.9473 40.2108 35.4543 39.6026 35.4543C38.9944 35.4543 38.5016 35.9473 38.5016 36.5553V43.1617C38.5016 45.1271 39.0396 47.0195 40.0403 48.667H17.617V45.3638C17.617 36.4187 24.8943 29.1413 33.8394 29.1413H41.767V29.1415ZM13.2128 32.4447C13.2128 30.6232 14.6946 29.1415 16.5161 29.1415H25.1116C19.6914 32.0694 15.8972 37.6347 15.4587 44.1061C14.561 43.8265 13.86 43.192 13.2128 42.3744V32.4447ZM6.60635 38.1608C8.08365 38.6433 9.0266 40.0944 10.0873 41.727C11.3624 43.6896 12.7886 45.8821 15.4149 46.366V48.6671H6.60635V38.1608ZM65.6968 53.0713H63.5176C63.5141 53.0713 14.3139 53.0713 14.3139 53.0713C13.7058 53.0713 13.2128 53.5642 13.2128 54.1723C13.2128 54.7804 13.7058 55.2733 14.3139 55.2733H61.967L61.396 56.9863C60.777 58.843 58.6008 60.4117 56.6435 60.4117H12.3564C10.3992 60.4117 8.22286 58.843 7.60388 56.9863L7.03288 55.2733H9.90945C10.5175 55.2733 11.0105 54.7804 11.0105 54.1723C11.0105 53.5642 10.5175 53.0713 9.90945 53.0713H5.48604C5.48213 53.0713 3.30311 53.0713 3.30311 53.0713C2.69585 53.0713 2.20207 52.5773 2.20207 51.9702C2.20207 51.363 2.69599 50.8692 3.30311 50.8692H65.6968C66.304 50.8692 66.7978 51.3631 66.7978 51.9702C66.7979 52.5775 66.304 53.0713 65.6968 53.0713Z" fill="black"/>
<path d="M30.83 19.5991C30.83 17.8613 31.278 17.0399 31.7965 16.089C32.3755 15.0273 33.0321 13.8239 33.0321 11.5246C33.0321 9.22985 32.3782 8.02693 31.7998 6.96686C31.6141 6.62132 31.2493 6.38629 30.8295 6.38629C30.2214 6.38629 29.7284 6.87926 29.7284 7.48733C29.7284 7.67923 29.7778 7.85955 29.8641 8.01655C30.3826 8.96678 30.83 9.78791 30.83 11.5246C30.83 13.2624 30.382 14.0838 29.8635 15.0347C29.2845 16.0964 28.6279 17.2999 28.6279 19.5991C28.6279 21.8984 29.2844 23.1017 29.8633 24.1634C30.0632 24.5298 30.4411 24.7373 30.8309 24.7373C31.009 24.7373 31.1897 24.6941 31.3571 24.6027C31.891 24.3116 32.0878 23.6428 31.7964 23.109C31.278 22.1579 30.83 21.3369 30.83 19.5991Z" fill="black"/>
<path d="M38.1708 19.5991C38.1708 17.8613 38.6188 17.0399 39.1374 16.089C39.7163 15.0273 40.3729 13.8239 40.3729 11.5246C40.3729 9.22985 39.719 8.02693 39.1406 6.96686C38.9549 6.62132 38.5901 6.38629 38.1703 6.38629C37.5622 6.38629 37.0692 6.87926 37.0692 7.48733C37.0692 7.67923 37.1186 7.85955 37.205 8.01655C37.7234 8.96678 38.1708 9.78791 38.1708 11.5246C38.1708 13.2624 37.7229 14.0838 37.2043 15.0347C36.6253 16.0964 35.9688 17.2999 35.9688 19.5991C35.9688 21.8984 36.6252 23.1017 37.2041 24.1634C37.404 24.5298 37.7819 24.7373 38.1718 24.7373C38.3498 24.7373 38.5305 24.6941 38.6979 24.6027C39.2318 24.3116 39.4286 23.6428 39.1372 23.109C38.6188 22.1579 38.1708 21.3369 38.1708 19.5991Z" fill="black"/>
</svg>
