<svg width="69" height="69" viewBox="0 0 69 69" fill="none" xmlns="http://www.w3.org/2000/svg">
<g clip-path="url(#clip0)">
<path d="M65.6968 48.667H64.2947C64.4933 47.5801 64.5957 46.4743 64.5957 45.3637C64.5957 35.2047 56.3306 26.9396 46.1712 26.9396H36.0219C26.2313 26.9396 18.2009 34.6166 17.6311 44.2671L14.7473 44.276L12.5494 42.0907C11.6481 41.1894 10.45 40.693 9.17552 40.693C7.9009 40.693 6.70284 41.1894 5.80166 42.0907C4.90062 42.9917 4.40414 44.1899 4.40414 45.4644C4.40414 46.6598 4.84065 47.7877 5.63846 48.6668H3.30297C1.48188 48.667 0 50.1487 0 51.9702C0 53.7917 1.48188 55.2734 3.30324 55.2734H4.71168L5.51474 57.6828C6.43641 60.4479 9.44168 62.614 12.3565 62.614H56.6436C59.5583 62.614 62.5635 60.448 63.4854 57.6828L64.2885 55.2734H65.6969C67.5182 55.2734 69.0001 53.7917 69.0001 51.9702C69 50.1487 67.5181 48.667 65.6968 48.667ZM62.3937 45.3639C62.3937 46.4767 62.2774 47.5841 62.0512 48.6671H59.7952C60.0565 47.5904 60.1916 46.4851 60.1916 45.3639C60.1916 37.633 53.9022 31.3436 46.1714 31.3436C43.2619 31.3436 40.469 32.2309 38.0947 33.9096C37.5983 34.2606 37.4802 34.9478 37.8314 35.4443C38.1825 35.9408 38.8692 36.059 39.3661 35.7076C41.3666 34.2933 43.7197 33.5457 46.1712 33.5457C52.6878 33.5457 57.9894 38.8473 57.9894 45.3639C57.9894 46.4906 57.8289 47.598 57.5169 48.6671H34.8256C34.5136 47.598 34.3531 46.4906 34.3531 45.3639C34.3531 42.9122 35.1007 40.5589 36.515 38.5586C36.8662 38.0621 36.7482 37.3751 36.2517 37.0239C35.7547 36.6727 35.0682 36.7907 34.717 37.2872C33.0383 39.6614 32.151 42.4543 32.151 45.3639C32.151 46.485 32.2861 47.5903 32.5474 48.6671H30.2914C30.0651 47.5842 29.949 46.4769 29.949 45.3639C29.949 36.4191 37.2263 29.142 46.1712 29.142C55.1162 29.142 62.3937 36.4191 62.3937 45.3639ZM19.7996 45.3649C19.7996 36.4195 27.0771 29.1418 36.0219 29.1418H37.4431C31.6748 32.2578 27.7468 38.3603 27.7468 45.3637C27.7468 46.4743 27.8493 47.5801 28.0478 48.667H19.7995V45.3649H19.7996ZM7.35888 43.6477C7.84403 43.1626 8.48916 42.8952 9.17552 42.8952C9.86188 42.8952 10.5069 43.1625 10.9944 43.6499L13.5179 46.1595C13.7249 46.3656 14.0054 46.485 14.2978 46.4798L17.5977 46.4696V48.6671H8.74548L7.35874 47.2812C6.87359 46.796 6.60635 46.1507 6.60635 45.4644C6.60635 44.7782 6.87359 44.133 7.35888 43.6477ZM65.6968 53.0712H63.5176C63.5141 53.0712 14.3139 53.0712 14.3139 53.0712C13.7057 53.0712 13.2128 53.5642 13.2128 54.1723C13.2128 54.7803 13.7057 55.2733 14.3139 55.2733H61.967L61.396 56.9863C60.777 58.843 58.6008 60.4116 56.6435 60.4116H12.3564C10.3992 60.4116 8.22286 58.843 7.60388 56.9863L7.03288 55.2733H9.90945C10.5176 55.2733 11.0105 54.7803 11.0105 54.1723C11.0105 53.5642 10.5176 53.0712 9.90945 53.0712H5.48617C5.48227 53.0712 3.30311 53.0712 3.30311 53.0712C2.69585 53.0712 2.20207 52.5773 2.20207 51.9702C2.20207 51.3629 2.69599 50.8692 3.30311 50.8692H65.6968C66.304 50.8692 66.7978 51.3631 66.7978 51.9702C66.7979 52.5774 66.304 53.0712 65.6968 53.0712Z" fill="black"/>
<path d="M46.1713 39.8585C43.1356 39.8585 40.666 42.3281 40.666 45.3638C40.666 45.9719 41.1589 46.4649 41.7671 46.4649C42.3752 46.4649 42.8681 45.9719 42.8681 45.3638C42.8681 43.5423 44.35 42.0606 46.1713 42.0606C47.9927 42.0606 49.4746 43.5423 49.4746 45.3638C49.4746 45.9719 49.9674 46.4649 50.5756 46.4649C51.1838 46.4649 51.6766 45.9719 51.6766 45.3638C51.6766 42.3281 49.2071 39.8585 46.1713 39.8585Z" fill="black"/>
<path d="M30.83 19.5991C30.83 17.8613 31.278 17.0399 31.7965 16.089C32.3755 15.0273 33.0321 13.8239 33.0321 11.5246C33.0321 9.22985 32.3782 8.02693 31.7998 6.96686C31.6141 6.62132 31.2493 6.38629 30.8295 6.38629C30.2214 6.38629 29.7284 6.87926 29.7284 7.48733C29.7284 7.67923 29.7778 7.85955 29.8641 8.01655C30.3826 8.96678 30.83 9.78791 30.83 11.5246C30.83 13.2624 30.382 14.0838 29.8635 15.0347C29.2845 16.0964 28.6279 17.2999 28.6279 19.5991C28.6279 21.8984 29.2844 23.1017 29.8633 24.1634C30.0632 24.5298 30.4411 24.7373 30.8309 24.7373C31.009 24.7373 31.1897 24.6941 31.3571 24.6027C31.891 24.3116 32.0878 23.6428 31.7964 23.109C31.278 22.1579 30.83 21.3369 30.83 19.5991Z" fill="black"/>
<path d="M38.1703 19.5991C38.1703 17.8613 38.6183 17.0399 39.1369 16.089C39.7158 15.0273 40.3724 13.8239 40.3724 11.5246C40.3724 9.22985 39.7185 8.02693 39.1401 6.96686C38.9544 6.62132 38.5896 6.38629 38.1698 6.38629C37.5617 6.38629 37.0688 6.87926 37.0688 7.48733C37.0688 7.67923 37.1181 7.85955 37.2045 8.01655C37.7229 8.96678 38.1703 9.78791 38.1703 11.5246C38.1703 13.2624 37.7224 14.0838 37.2038 15.0347C36.6248 16.0964 35.9683 17.2999 35.9683 19.5991C35.9683 21.8984 36.6247 23.1017 37.2037 24.1634C37.4035 24.5298 37.7814 24.7373 38.1713 24.7373C38.3493 24.7373 38.53 24.6941 38.6974 24.6027C39.2313 24.3116 39.4281 23.6428 39.1367 23.109C38.6183 22.1579 38.1703 21.3369 38.1703 19.5991Z" fill="black"/>
</g>
<defs>
<clipPath id="clip0">
<rect width="69" height="69" fill="white"/>
</clipPath>
</defs>
</svg>
