<svg width="69" height="69" viewBox="0 0 69 69" fill="none" xmlns="http://www.w3.org/2000/svg">
<g clip-path="url(#clip0)">
<path d="M30.8299 13.2131C30.8299 11.4753 31.2778 10.6539 31.7964 9.70299C32.3756 8.64117 33.0319 7.43785 33.0319 5.13848C33.0319 2.84369 32.3781 1.64077 31.7996 0.580705C31.6139 0.235031 31.2493 0 30.8295 0C30.2214 0 29.7284 0.492973 29.7284 1.10104C29.7284 1.29294 29.7778 1.47326 29.8641 1.63026C30.3823 2.58049 30.83 3.40162 30.83 5.13834C30.83 6.87615 30.382 7.69754 29.8635 8.64845C29.2842 9.71013 28.6279 10.9135 28.6279 13.2128C28.6279 15.5122 29.2844 16.7154 29.8633 17.7771C30.0632 18.1435 30.4411 18.351 30.8309 18.351C31.009 18.351 31.1897 18.3078 31.3571 18.2164C31.891 17.9253 32.0878 17.2565 31.7964 16.7227C31.2777 15.7719 30.8299 14.9509 30.8299 13.2131Z" fill="black"/>
<path d="M38.1707 13.2131C38.1707 11.4753 38.6186 10.6539 39.1372 9.70299C39.7163 8.64117 40.3728 7.43785 40.3728 5.13848C40.3728 2.84369 39.7189 1.64077 39.1405 0.580705C38.9547 0.235031 38.5901 0 38.1703 0C37.5622 0 37.0692 0.492973 37.0692 1.10104C37.0692 1.29294 37.1186 1.47326 37.205 1.63026C37.7231 2.58049 38.1708 3.40162 38.1708 5.13834C38.1708 6.87615 37.7229 7.69754 37.2043 8.64845C36.6251 9.71013 35.9688 10.9135 35.9688 13.2128C35.9688 15.5122 36.6252 16.7154 37.2041 17.7771C37.404 18.1435 37.7819 18.351 38.1718 18.351C38.3498 18.351 38.5305 18.3078 38.6979 18.2164C39.2318 17.9253 39.4286 17.2565 39.1372 16.7227C38.6185 15.7719 38.1707 14.9509 38.1707 13.2131Z" fill="black"/>
<path d="M65.6968 55.0532H62.3935V48.4469C62.3935 33.0662 49.8805 20.5532 34.4999 20.5532C19.1192 20.5532 6.60635 33.0661 6.60635 48.4468V51.75C6.60635 52.3581 7.09932 52.851 7.70738 52.851C8.31544 52.851 8.80842 52.3581 8.80842 51.75V48.4468C8.80842 43.8915 10.0016 39.6104 12.0894 35.8968C12.1142 35.8966 12.1385 35.8947 12.1634 35.8947C13.5687 35.8947 14.2612 36.3855 15.0749 37.0246C13.0388 40.4797 11.9648 44.4062 11.9648 48.4469V55.0532H3.30324C1.48175 55.0532 0 56.535 0 58.3563C0 60.1778 1.48175 61.6596 3.30324 61.6596H4.71168L5.51474 64.0689C6.43654 66.834 9.44168 69 12.3564 69H56.6436C59.5583 69 62.5635 66.834 63.4851 64.0688L64.2882 61.6594H65.6966C67.5181 61.6594 68.9999 60.1777 68.9999 58.3562C69 56.535 67.5183 55.0532 65.6968 55.0532ZM60.1915 48.4468V55.0531H57.0351V48.4468C57.0351 46.5949 58.2031 45.0117 59.8764 44.4286C60.0831 45.7382 60.1915 47.08 60.1915 48.4468ZM59.4358 42.2566C56.7417 43.0548 54.8329 45.5316 54.8329 48.4468V55.0531H51.6766V48.4468C51.6766 44.1968 54.4914 40.465 58.4875 39.2479C58.8631 40.2238 59.1804 41.2279 59.4358 42.2566ZM56.9104 35.8968C57.154 36.3301 57.3859 36.7707 57.6048 37.219C52.8218 38.7902 49.4745 43.3104 49.4745 48.4468V55.0531H46.3181V52.851C46.3181 52.243 45.8252 51.75 45.2171 51.75C44.609 51.75 44.1161 52.243 44.1161 52.851V55.0531H40.9597V48.4468C40.9597 44.2398 42.2171 40.2453 44.6042 36.8304C44.7291 36.9251 44.8549 37.0237 44.9848 37.1262C45.5915 37.6047 46.2925 38.1566 47.289 38.4997C45.2321 41.3922 44.1162 44.8596 44.1162 48.4468C44.1162 49.0548 44.6092 49.5478 45.2172 49.5478C45.8253 49.5478 46.3183 49.0548 46.3183 48.4468C46.3183 44.9117 47.5636 41.512 49.8293 38.8175C51.7926 38.7031 52.8959 37.8344 53.7937 37.1263C54.6659 36.4382 55.355 35.8947 56.8343 35.8947C56.8599 35.8947 56.885 35.8966 56.9104 35.8968ZM38.7574 48.4468V55.0531H35.601V48.4468C35.601 46.7188 35.7706 45.0203 36.1037 43.3602C36.1074 43.3442 36.1107 43.3283 36.1137 43.312C36.4916 41.4478 37.0785 39.6327 37.8712 37.8802C38.2574 37.6348 38.5928 37.371 38.9032 37.1263C39.7755 36.4382 40.4645 35.8947 41.9438 35.8947C42.1632 35.8947 42.3633 35.9079 42.5513 35.9305C40.0649 39.6356 38.7574 43.931 38.7574 48.4468ZM13.4046 33.8014C18.0494 27.1303 25.7729 22.7553 34.5 22.7553C43.2269 22.7553 50.9502 27.1302 55.5955 33.8008C54.1173 34.069 53.1977 34.7913 52.4296 35.3973C51.5574 36.0854 50.8684 36.6289 49.389 36.6289C47.9097 36.6289 47.2207 36.0854 46.3483 35.3973C45.3854 34.6378 44.1872 33.6926 41.9439 33.6926C39.7006 33.6926 38.5024 34.6377 37.5396 35.3973C36.6673 36.0854 35.9784 36.6289 34.4991 36.6289C33.0197 36.6289 32.3307 36.0854 31.4583 35.3973C30.4954 34.6378 29.2972 33.6926 27.0539 33.6926C24.8106 33.6926 23.6124 34.6377 22.6495 35.3973C21.7772 36.0854 21.0883 36.6289 19.6089 36.6289C18.1296 36.6289 17.4406 36.0854 16.5682 35.3973C15.8007 34.7919 14.8815 34.0698 13.4046 33.8014ZM28.0404 48.4468V55.0531H24.8841V48.4468C24.8841 43.1445 29.1978 38.8308 34.5 38.8308C34.6984 38.8308 34.8965 38.839 35.0946 38.8512C34.7155 39.8828 34.4001 40.9324 34.1479 41.9971C30.7492 42.1807 28.0404 45.0031 28.0404 48.4468ZM33.7085 44.2642C33.5027 45.6376 33.399 47.0331 33.399 48.4468V55.0531H30.2426V48.4468C30.2426 46.3697 31.7381 44.6364 33.7085 44.2642ZM14.167 48.4468C14.167 44.8443 15.1134 41.3433 16.9076 38.2539C17.6113 38.59 18.4768 38.8308 19.6087 38.8308C19.8448 38.8308 20.0667 38.8181 20.2806 38.7986C18.3777 41.5984 17.3233 44.9392 17.3233 48.4468C17.3233 49.0548 17.8163 49.5478 18.4244 49.5478C19.0324 49.5478 19.5254 49.0548 19.5254 48.4468C19.5254 43.3999 22.0296 38.749 26.2331 35.9614C26.4793 35.9188 26.749 35.8945 27.0535 35.8945C28.5327 35.8945 29.2219 36.4381 30.0942 37.1262C30.193 37.2041 30.2952 37.2842 30.3999 37.3648C25.8987 39.0355 22.6817 43.3713 22.6817 48.4466V55.053H19.5254V52.8509C19.5254 52.2428 19.0324 51.7499 18.4244 51.7499C17.8163 51.7499 17.3233 52.2428 17.3233 52.8509V55.053H14.167V48.4468ZM65.6968 59.4574H14.3139C13.7058 59.4574 13.2128 59.9503 13.2128 60.5584C13.2128 61.1665 13.7058 61.6594 14.3139 61.6594H61.967L61.396 63.3725C60.777 65.2291 58.6008 66.7978 56.6435 66.7978H12.3564C10.3992 66.7978 8.22286 65.2291 7.60388 63.3725L7.03288 61.6594H9.90945C10.5175 61.6594 11.0105 61.1665 11.0105 60.5584C11.0105 59.9503 10.5175 59.4574 9.90945 59.4574H3.30324C2.69599 59.4574 2.20221 58.9635 2.20221 58.3563C2.20221 57.7491 2.69612 57.2553 3.30324 57.2553H65.6969C66.3042 57.2553 66.7979 57.7492 66.7979 58.3563C66.7979 58.9636 66.304 59.4574 65.6968 59.4574Z" fill="black"/>
</g>
<defs>
<clipPath id="clip0">
<rect width="69" height="69" fill="white"/>
</clipPath>
</defs>
</svg>
