<svg width="75" height="75" viewBox="0 0 75 75" fill="none" xmlns="http://www.w3.org/2000/svg">
<path d="M53.4575 34.4153C54.1185 34.4153 54.6543 33.8795 54.6543 33.2186C54.6543 32.5576 54.1185 32.0218 53.4575 32.0218C52.7966 32.0218 52.2607 32.5576 52.2607 33.2186C52.2607 33.8795 52.7966 34.4153 53.4575 34.4153Z" fill="black"/>
<path d="M58.2446 39.2026C58.9056 39.2026 59.4414 38.6668 59.4414 38.0058C59.4414 37.3448 58.9056 36.809 58.2446 36.809C57.5837 36.809 57.0479 37.3448 57.0479 38.0058C57.0479 38.6668 57.5837 39.2026 58.2446 39.2026Z" fill="black"/>
<path d="M26.3296 29.6282C26.9906 29.6282 27.5264 29.0924 27.5264 28.4315C27.5264 27.7705 26.9906 27.2347 26.3296 27.2347C25.6686 27.2347 25.1328 27.7705 25.1328 28.4315C25.1328 29.0924 25.6686 29.6282 26.3296 29.6282Z" fill="black"/>
<path d="M73.8032 43.0852H70.0884C69.7916 41.644 68.9719 40.3582 67.8012 39.4828C68.8715 37.9657 69.2032 35.9938 68.6117 34.1732C68.02 32.3525 66.5927 30.9521 64.8352 30.3541C65.3845 28.5804 65.0905 26.6026 63.9652 25.0538C62.8397 23.5052 61.0497 22.6144 59.1935 22.5888C59.1678 20.7325 58.2769 18.9422 56.7281 17.817C55.1793 16.6919 53.2017 16.3976 51.428 16.9472C50.8299 15.1896 49.4295 13.7622 47.6087 13.1706C45.7884 12.5791 43.8161 12.9104 42.2993 13.9811C41.1872 12.4939 39.4143 11.5692 37.5 11.5692C35.5857 11.5692 33.8128 12.4939 32.7007 13.9806C31.1836 12.91 29.2118 12.5786 27.3911 13.1701C27.0182 13.2913 26.6643 13.4492 26.33 13.6362V1.19678C26.33 0.535693 25.7943 0 25.1332 0H20.3459C19.6849 0 19.1492 0.535693 19.1492 1.19678V13.1924C19.1492 13.8535 19.6849 14.3892 20.3459 14.3892C21.007 14.3892 21.5427 13.8535 21.5427 13.1924V2.39355H23.9363V16.1024C23.7946 16.3736 23.6714 16.655 23.5721 16.9466C21.7985 16.3978 19.8207 16.6916 18.2719 17.8166C17.6581 18.2626 17.1497 18.8142 16.7555 19.4316V1.19678C16.7555 0.535693 16.2198 0 15.5587 0H10.7714C10.1102 0 9.57451 0.535693 9.57451 1.19678V20.4754C9.57451 21.1365 10.1102 21.6722 10.7713 21.6722C11.4324 21.6722 11.9681 21.1365 11.9681 20.4754V2.39355H14.3616V22.7875C13.0519 23.1321 11.8629 23.914 11.0347 25.0538C9.90938 26.6026 9.61523 28.5803 10.1647 30.3539C8.40718 30.952 6.97998 32.3524 6.38818 34.1732C5.79668 35.9938 6.12817 37.9658 7.19868 39.4827C6.02827 40.3581 5.2084 41.6439 4.91162 43.085H1.19678C0.535693 43.085 0 43.6207 0 44.2818C0 56.521 8.52392 66.8057 19.9468 69.5145V71.4094C19.9468 73.3891 21.5575 74.9999 23.5373 74.9999H51.4627C53.4425 74.9999 55.0532 73.3891 55.0532 71.4094V69.5145C66.4761 66.8058 75 56.5211 75 44.2819C75 43.6208 74.4643 43.0852 73.8032 43.0852ZM9.53335 40.9104C9.94043 40.7607 10.2349 40.4026 10.3025 39.9743C10.3705 39.5458 10.2012 39.1143 9.86016 38.8462C8.68169 37.9198 8.20137 36.3391 8.66484 34.9129C9.12832 33.4866 10.4459 32.4901 11.9439 32.4333C12.3773 32.4168 12.7679 32.1672 12.9649 31.7808C13.1618 31.3944 13.1344 30.9315 12.8928 30.5713C12.0584 29.326 12.0899 27.6743 12.9713 26.4608C13.8529 25.2473 15.4146 24.7069 16.8562 25.1159C17.2739 25.2344 17.7223 25.1174 18.0292 24.8108C18.3359 24.5039 18.4525 24.0554 18.3343 23.6379C17.9253 22.196 18.466 20.6347 19.6792 19.753C20.8926 18.8714 22.5439 18.8401 23.7896 19.6745C24.1499 19.916 24.6126 19.9438 24.9992 19.7465C25.3856 19.5497 25.6352 19.1588 25.6516 18.7255C25.7084 17.2276 26.705 15.9098 28.1312 15.4465C29.5575 14.9833 31.1383 15.4633 32.0645 16.6418C32.3326 16.983 32.7652 17.1527 33.1926 17.0842C33.6211 17.0164 33.9794 16.7219 34.1288 16.315C34.6456 14.9079 36.0007 13.9626 37.5003 13.9626C38.9999 13.9626 40.355 14.9079 40.8718 16.315C41.0215 16.7221 41.3796 17.0165 41.808 17.0842C42.236 17.1524 42.6681 16.9827 42.936 16.6418C43.8623 15.4633 45.4431 14.9829 46.8693 15.4465C48.2956 15.9098 49.2921 17.2276 49.349 18.7255C49.3654 19.159 49.615 19.5495 50.0014 19.7465C50.3878 19.9434 50.851 19.916 51.2109 19.6745C52.4563 18.8401 54.1078 18.8719 55.3214 19.753C56.5346 20.6345 57.0751 22.1959 56.6663 23.6379C56.5481 24.0552 56.6647 24.5039 56.9714 24.8108C57.2782 25.1174 57.7264 25.2343 58.1443 25.1159C59.5865 24.7069 61.1476 25.2476 62.0292 26.4608C62.9106 27.6743 62.9423 29.326 62.1078 30.5713C61.8662 30.9316 61.8385 31.3944 62.0357 31.7808C62.2329 32.1672 62.6234 32.4168 63.0567 32.4333C64.5546 32.4901 65.8724 33.4866 66.3357 34.9128C66.7989 36.3391 66.3189 37.92 65.1404 38.8462C64.7993 39.1144 64.6301 39.5459 64.698 39.9743C64.7659 40.4027 65.0603 40.761 65.4672 40.9104C66.4847 41.2841 67.2584 42.0973 67.6102 43.0852H7.39043C7.74214 42.0971 8.51587 41.2841 9.53335 40.9104ZM49.0692 67.8192H30.7181C30.057 67.8192 29.5213 68.3549 29.5213 69.016C29.5213 69.677 30.057 70.2127 30.7181 70.2127H49.0692C50.2874 70.2127 51.4856 70.1263 52.6597 69.963V71.4095C52.6597 72.0696 52.1228 72.6063 51.4629 72.6063H23.5373C22.8772 72.6063 22.3405 72.0694 22.3405 71.4095V69.963C23.5144 70.1263 24.7126 70.2127 25.931 70.2127C26.592 70.2127 27.1277 69.677 27.1277 69.016C27.1277 68.3549 26.592 67.8192 25.931 67.8192C13.3541 67.8192 3.04937 57.9029 2.42373 45.4787H72.5763C71.9506 57.9029 61.646 67.8192 49.0692 67.8192Z" fill="black"/>
</svg>
