<svg width="69" height="69" viewBox="0 0 69 69" fill="none" xmlns="http://www.w3.org/2000/svg">
<path d="M65.6968 36.7021H64.4992C64.5639 36.1906 64.5975 35.6698 64.5975 35.143C64.5975 28.6221 59.2989 23.3166 52.7859 23.3166C52.5796 23.3166 52.3697 23.3225 52.1573 23.3341C49.968 20.1186 46.2807 18.1478 42.3721 18.1478C41.2399 18.1478 40.1344 18.3074 39.0672 18.6161V11.3777C39.0672 10.7697 38.5744 10.2767 37.9662 10.2767C32.872 10.2767 28.3916 12.9523 25.8545 16.9716V1.10104C25.8545 0.492973 25.3617 0 24.7535 0H20.3492C19.741 0 19.2482 0.492973 19.2482 1.10104V19.474C19.2482 20.0821 19.741 20.5751 20.3492 20.5751C20.9574 20.5751 21.4502 20.0821 21.4502 19.474V2.20207H23.6523V23.3526C22.3187 22.9643 20.9093 22.7552 19.4521 22.7552C18.6332 22.7552 17.8296 22.822 17.0458 22.9484V1.10104C17.0458 0.492973 16.553 0 15.9448 0H11.5408C10.9326 0 10.4398 0.492973 10.4398 1.10104V21.2471C10.4398 21.8552 10.9326 22.3482 11.5408 22.3482C12.149 22.3482 12.6418 21.8552 12.6418 21.2471V2.20207H14.8439V23.4781C9.12862 25.321 4.89577 30.4949 4.44471 36.7021H3.30311C1.48188 36.7021 0 38.1838 0 40.0053C0 41.8268 1.48188 43.3086 3.30324 43.3086H4.42867C5.00843 57.5734 16.7922 69 31.1968 69H37.8031C52.2077 69 63.9916 57.5734 64.5713 43.3086H65.6968C67.5181 43.3086 69 41.8268 69 40.0053C69 38.1838 67.5181 36.7021 65.6968 36.7021ZM39.0672 20.9307C40.1222 20.5473 41.2303 20.3501 42.3721 20.3501C45.7421 20.3501 48.9108 22.1512 50.6411 25.0505C50.8624 25.4211 51.2787 25.6277 51.7085 25.5805C52.0764 25.5396 52.4391 25.5188 52.7861 25.5188C58.0847 25.5188 62.3954 29.8362 62.3954 35.143C62.3954 35.6731 62.355 36.1947 62.276 36.7021H52.3318L56.0366 32.9972C56.4667 32.5672 56.4667 31.87 56.0366 31.4401C55.6065 31.0101 54.9094 31.0101 54.4794 31.4401L49.2174 36.7021H43.4732V26.1149C43.4732 25.5068 42.9804 25.0138 42.3722 25.0138C41.764 25.0138 41.2712 25.5068 41.2712 26.1149V36.7021H39.0672V20.9307ZM36.8651 12.5284V14.7436C32.8069 15.1944 29.3944 18.1067 28.364 22.1369C28.2135 22.7261 28.569 23.3258 29.158 23.4763C29.2495 23.4998 29.3413 23.5109 29.4313 23.5109C29.9224 23.5109 30.3701 23.1798 30.4975 22.6823C31.2779 19.6289 33.8166 17.4007 36.865 16.9629V36.7021H34.4594C34.0573 31.1681 30.6492 26.4553 25.8645 24.192C26.0639 18.0659 30.8313 13.0743 36.8651 12.5284ZM19.4521 24.9575C26.1643 24.9575 31.6897 30.1327 32.2501 36.7022H30.0387C29.486 31.3486 24.9492 27.1596 19.4519 27.1596C17.4796 27.1596 15.5524 27.7044 13.8783 28.7353C13.3605 29.0541 13.1992 29.7324 13.5181 30.2502C13.8369 30.7679 14.5153 30.929 15.033 30.6104C16.3597 29.7936 17.8877 29.3617 19.4519 29.3617C23.7333 29.3617 27.2778 32.5662 27.8193 36.7021H25.592C25.0702 33.7853 22.5165 31.5637 19.4518 31.5637C16.3872 31.5637 13.8334 33.7852 13.3117 36.7021H11.0833C11.2382 35.5196 11.6413 34.3819 12.273 33.363C12.5934 32.8462 12.4343 32.1673 11.9175 31.847C11.4009 31.5265 10.7218 31.6856 10.4015 32.2025C9.55327 33.5705 9.03064 35.1081 8.86542 36.7019H6.65405C7.21441 30.1326 12.7399 24.9575 19.4521 24.9575ZM23.3355 36.7021H15.5687C16.0494 35.0097 17.6077 33.7659 19.4521 33.7659C21.2965 33.7659 22.8549 35.0097 23.3355 36.7021ZM65.6968 41.1063H14.3139C13.7057 41.1063 13.2128 41.5993 13.2128 42.2074C13.2128 42.8154 13.7057 43.3084 14.3139 43.3084H62.3678C61.7896 56.3586 50.9932 66.7978 37.8032 66.7978H31.1969C18.0068 66.7978 7.2105 56.3586 6.63236 43.3084H9.90972C10.5179 43.3084 11.0108 42.8154 11.0108 42.2074C11.0108 41.5993 10.5179 41.1063 9.90972 41.1063H3.30324C2.69599 41.1063 2.2022 40.6124 2.2022 40.0053C2.2022 39.3981 2.69612 38.9043 3.30324 38.9043H63.1711C63.1812 38.9043 65.6968 38.9043 65.6968 38.9043C66.304 38.9043 66.7978 39.3982 66.7978 40.0053C66.7979 40.6126 66.304 41.1063 65.6968 41.1063Z" fill="black"/>
</svg>
