<svg width="30" height="30" viewBox="0 0 30 30" fill="none" xmlns="http://www.w3.org/2000/svg">
<g clip-path="url(#clip0)">
<path d="M13.5998 5.74477C13.5998 4.9892 13.7868 4.63207 14.0032 4.21863C14.245 3.75703 14.519 3.23385 14.519 2.23412C14.519 1.23639 14.246 0.713379 14.0046 0.25248C13.9271 0.102187 13.7749 0 13.5996 0C13.3458 0 13.14 0.214336 13.14 0.478711C13.14 0.562148 13.1606 0.640547 13.1967 0.708809C13.413 1.12195 13.5998 1.47896 13.5998 2.23406C13.5998 2.98963 13.4129 3.34676 13.1964 3.7602C12.9546 4.2218 12.6807 4.74498 12.6807 5.74471C12.6807 6.74443 12.9547 7.26756 13.1963 7.72916C13.2798 7.88848 13.4375 7.97871 13.6002 7.97871C13.6746 7.97871 13.75 7.9599 13.8199 7.92018C14.0427 7.79361 14.1249 7.50281 14.0032 7.27072C13.7868 6.85729 13.5998 6.50027 13.5998 5.74477Z" fill="black"/>
<path d="M16.6638 5.74477C16.6638 4.9892 16.8507 4.63207 17.0672 4.21863C17.3089 3.75703 17.5829 3.23385 17.5829 2.23412C17.5829 1.23639 17.31 0.713379 17.0686 0.25248C16.991 0.102187 16.8388 0 16.6636 0C16.4098 0 16.204 0.214336 16.204 0.478711C16.204 0.562148 16.2246 0.640547 16.2606 0.708809C16.4769 1.12195 16.6638 1.47896 16.6638 2.23406C16.6638 2.98963 16.4768 3.34676 16.2604 3.7602C16.0186 4.2218 15.7446 4.74498 15.7446 5.74471C15.7446 6.74443 16.0186 7.26756 16.2603 7.72916C16.3437 7.88848 16.5015 7.97871 16.6642 7.97871C16.7385 7.97871 16.814 7.9599 16.8838 7.92018C17.1067 7.79361 17.1888 7.50281 17.0672 7.27072C16.8507 6.85729 16.6638 6.50027 16.6638 5.74477Z" fill="black"/>
<path d="M28.1539 8.93619H23.3544L28.9883 3.27498C28.9904 3.27299 28.9923 3.27094 28.9943 3.26889C29.3415 2.90725 29.5328 2.42637 29.5328 1.9149C29.5328 1.40344 29.3415 0.922558 28.9943 0.560859C28.6471 0.199219 28.1854 0 27.6943 0C27.2033 0 26.7416 0.199219 26.3944 0.560859C26.3924 0.56291 26.3905 0.564902 26.3885 0.567012L18.6373 8.93619H2.10979C1.34946 8.93619 0.730957 9.58043 0.730957 10.3723C0.730957 11.1643 1.34946 11.8085 2.10979 11.8085H2.57956C2.82156 18.0106 7.74037 22.9787 13.7531 22.9787H16.5107C22.5234 22.9787 27.4422 18.0106 27.6842 11.8085H28.154C28.9143 11.8085 29.5328 11.1643 29.5328 10.3723C29.5328 9.58043 28.9143 8.93619 28.1539 8.93619ZM27.047 1.2351C27.2204 1.05598 27.4501 0.957422 27.6943 0.957422C27.9398 0.957422 28.1707 1.05697 28.3443 1.23791C28.5179 1.41873 28.6136 1.6592 28.6136 1.9149C28.6136 2.16932 28.519 2.40861 28.347 2.58914L22.0305 8.93619H19.9145L27.047 1.2351ZM28.1539 10.8511H6.70581C6.452 10.8511 6.24622 11.0654 6.24622 11.3298C6.24622 11.5942 6.452 11.8085 6.70581 11.8085H26.7644C26.523 17.4825 22.0164 22.0213 16.5107 22.0213H13.7531C8.24727 22.0213 3.74075 17.4825 3.49942 11.8085H4.86745C5.12126 11.8085 5.32704 11.5942 5.32704 11.3298C5.32704 11.0654 5.12126 10.8511 4.86745 10.8511H2.10979C1.85631 10.8511 1.6502 10.6363 1.6502 10.3724C1.6502 10.1084 1.85637 9.89367 2.10979 9.89367H28.154C28.4075 9.89367 28.6136 10.1084 28.6136 10.3724C28.6136 10.6363 28.4074 10.8511 28.1539 10.8511Z" fill="black"/>
<path d="M28.1539 23.9362H2.10979C1.34946 23.9362 0.730957 24.5805 0.730957 25.3724C0.730957 26.1643 1.34946 26.8085 2.10979 26.8085H2.69769L3.03291 27.8561C3.41768 29.0583 4.67208 30 5.88873 30H24.375C25.5917 30 26.846 29.0583 27.2308 27.856L27.566 26.8085H28.1539C28.9142 26.8085 29.5327 26.1642 29.5327 25.3723C29.5328 24.5805 28.9143 23.9362 28.1539 23.9362ZM28.1539 25.8511H27.2444C27.2429 25.8511 6.70581 25.8511 6.70581 25.8511C6.452 25.8511 6.24622 26.0654 6.24622 26.3298C6.24622 26.5942 6.452 26.8085 6.70581 26.8085H26.5971L26.3587 27.5533C26.1003 28.3605 25.192 29.0426 24.3749 29.0426H5.88873C5.07176 29.0426 4.16332 28.3605 3.90495 27.5533L3.6666 26.8085H4.86734C5.12115 26.8085 5.32693 26.5942 5.32693 26.3298C5.32693 26.0654 5.12115 25.8511 4.86734 25.8511H3.0216C3.01901 25.8511 2.10973 25.8511 2.10973 25.8511C1.85625 25.8511 1.65014 25.6363 1.65014 25.3724C1.65014 25.1083 1.85631 24.8936 2.10973 24.8936H28.1539C28.4074 24.8936 28.6135 25.1084 28.6135 25.3724C28.6136 25.6364 28.4074 25.8511 28.1539 25.8511Z" fill="black"/>
</g>
<defs>
<clipPath id="clip0">
<rect width="28.8018" height="30" fill="white" transform="translate(0.730957)"/>
</clipPath>
</defs>
</svg>
