<svg width="69" height="69" viewBox="0 0 69 69" fill="none" xmlns="http://www.w3.org/2000/svg">
<path d="M49.4127 31.022C49.971 31.022 50.4234 30.5696 50.4234 30.0113C50.4234 29.453 49.971 29.0005 49.4127 29.0005H48.1045C47.5462 29.0005 47.0938 29.453 47.0938 30.0113C47.0938 30.5696 47.5462 31.022 48.1045 31.022H49.4127Z" fill="black"/>
<path d="M45.4888 30.2831H44.1807C43.6223 30.2831 43.1699 30.7355 43.1699 31.2939C43.1699 31.8522 43.6223 32.3046 44.1807 32.3046H45.4888C46.0472 32.3046 46.4996 31.8522 46.4996 31.2939C46.4996 30.7355 46.0472 30.2831 45.4888 30.2831Z" fill="black"/>
<path d="M20.6334 27.7183H19.3252C18.7669 27.7183 18.3145 28.1707 18.3145 28.729C18.3145 29.2873 18.7669 29.7397 19.3252 29.7397H20.6334C21.1917 29.7397 21.6441 29.2873 21.6441 28.729C21.6441 28.1707 21.1917 27.7183 20.6334 27.7183Z" fill="black"/>
<path d="M67.335 43.1075H58.3921C58.3991 43.0172 58.4037 42.9267 58.4037 42.8357V22.3168C58.4037 20.3451 56.7767 18.7412 54.7766 18.7412H53.9874C54.2185 18.271 54.3484 17.7436 54.3484 17.187C54.3484 15.2154 52.7214 13.6115 50.7214 13.6115C48.7213 13.6115 47.0943 15.2154 47.0943 17.187C47.0943 17.7436 47.2241 18.271 47.4553 18.7412H43.5221C43.7532 18.271 43.8831 17.7436 43.8831 17.187C43.8831 15.2154 42.2561 13.6115 40.256 13.6115C39.5531 13.6115 38.8741 13.8114 38.2924 14.1814C37.7265 13.8214 37.0536 13.6115 36.3315 13.6115C34.3315 13.6115 32.7045 15.2154 32.7045 17.187C32.7045 17.7436 32.8342 18.271 33.0655 18.7412H14.2233C12.2232 18.7412 10.5962 20.3451 10.5962 22.3168V34.1304H8.85975C7.58109 34.1304 6.54084 35.1592 6.54084 36.4237V42.8359C6.54084 42.928 6.54798 43.0183 6.55863 43.1077H1.66489C0.74687 43.1075 0 43.8486 0 44.7595V49.8892C0 50.8001 0.74687 51.5412 1.66489 51.5412H7.97986V53.7366C7.97986 54.6475 8.72673 55.3886 9.64475 55.3886H20.5025C21.4206 55.3886 22.1674 54.6475 22.1674 53.7366V51.5412H46.8326V53.7366C46.8326 54.6475 47.5795 55.3886 48.4975 55.3886H59.3553C60.2733 55.3886 61.0201 54.6475 61.0201 53.7366V51.5412H67.3351C68.2531 51.5412 69 50.8001 69 49.8892V44.7595C68.9999 43.8486 68.253 43.1075 67.335 43.1075ZM50.7212 15.6328C51.6065 15.6328 52.3268 16.3301 52.3268 17.1869C52.3268 18.0437 51.6065 18.741 50.7212 18.741C49.836 18.741 49.1156 18.0439 49.1156 17.1869C49.1156 16.3301 49.836 15.6328 50.7212 15.6328ZM39.6507 15.7476C39.841 15.6726 40.0457 15.6325 40.2559 15.6325C41.1412 15.6328 41.8615 16.3301 41.8615 17.1869C41.8615 18.0437 41.1412 18.741 40.2559 18.741C40.0439 18.741 39.8399 18.7007 39.6505 18.6261C39.848 18.1854 39.9585 17.6987 39.9585 17.1868C39.9585 16.6749 39.848 16.1883 39.6507 15.7476ZM36.3314 15.6328C37.2167 15.6328 37.937 16.3301 37.937 17.1869C37.937 18.0437 37.2167 18.741 36.3314 18.741C35.4461 18.741 34.7258 18.0439 34.7258 17.1869C34.7258 16.3301 35.4461 15.6328 36.3314 15.6328ZM8.56232 36.4236C8.56232 36.2737 8.69573 36.1518 8.85975 36.1518H15.4006C15.5646 36.1518 15.698 36.2736 15.698 36.4236V38.6282L14.9831 39.329C14.5405 39.7629 14.2967 40.3415 14.2967 40.9578C14.2969 41.574 14.5406 42.1523 14.9832 42.5861L15.515 43.1074H8.85975C8.69573 43.1075 8.56232 42.9857 8.56232 42.8357V36.4236ZM20.1458 53.3671H10.0013V51.5412H20.1458V53.3671ZM58.9985 53.3671H48.8541V51.5412H58.9985V53.3671ZM66.9784 49.5197H2.02148V45.129H44.9762C45.5345 45.129 45.9869 44.6766 45.9869 44.1183C45.9869 43.5599 45.5345 43.1075 44.9762 43.1075H26.967L27.4987 42.5863C27.9412 42.1525 28.1848 41.5742 28.185 40.9579C28.185 40.3416 27.9413 39.7632 27.4986 39.3291L22.8736 34.7949C21.9734 33.9124 20.5086 33.9121 19.6084 34.7949L17.7195 36.6466V36.4236C17.7195 35.1591 16.6792 34.1303 15.4006 34.1303H12.6177V25.8922H12.9151C13.4734 25.8922 13.9258 25.4398 13.9258 24.8815C13.9258 24.3231 13.4734 23.8707 12.9151 23.8707H12.6177V22.3166C12.6177 21.4596 13.338 20.7625 14.2233 20.7625H54.7766C55.6619 20.7625 56.3822 21.4596 56.3822 22.3166V23.8707H55.9539C55.3956 23.8707 54.9432 24.3231 54.9432 24.8815C54.9432 25.4398 55.3956 25.8922 55.9539 25.8922H56.3822V42.8357C56.3822 42.9284 56.3711 43.0186 56.3551 43.1075H48.9334C48.3751 43.1075 47.9227 43.5599 47.9227 44.1183C47.9227 44.6766 48.3751 45.129 48.9334 45.129H66.9784V49.5197ZM16.3182 40.9578C16.3182 40.9091 16.3322 40.8374 16.3983 40.7726L21.0234 36.2386C21.1412 36.1233 21.3404 36.1229 21.4584 36.2384L26.0834 40.7725C26.1495 40.8373 26.1635 40.9091 26.1635 40.9578C26.1635 41.0064 26.1495 41.0781 26.0836 41.1428L24.0793 43.1075H18.4025L16.3983 41.1427C16.3322 41.078 16.3183 41.0064 16.3182 40.9578Z" fill="black"/>
<path d="M37.6392 37.9778H36.3311C35.7727 37.9778 35.3203 38.4303 35.3203 38.9886C35.3203 39.5469 35.7727 39.9993 36.3311 39.9993H37.6392C38.1976 39.9993 38.65 39.5469 38.65 38.9886C38.65 38.4303 38.1974 37.9778 37.6392 37.9778Z" fill="black"/>
<path d="M32.4068 23.8708H31.0986C30.5403 23.8708 30.0879 24.3233 30.0879 24.8816C30.0879 25.4399 30.5403 25.8923 31.0986 25.8923H32.4068C32.9651 25.8923 33.4175 25.4399 33.4175 24.8816C33.4175 24.3233 32.965 23.8708 32.4068 23.8708Z" fill="black"/>
</svg>
