<svg width="69" height="69" viewBox="0 0 69 69" fill="none" xmlns="http://www.w3.org/2000/svg">
<g clip-path="url(#clip0)">
<path d="M34.5008 16.8831C24.7867 16.8831 16.8838 24.7861 16.8838 34.5C16.8838 38.3984 18.1324 42.0934 20.4947 45.1853C20.864 45.6685 21.5549 45.761 22.038 45.3919C22.5213 45.0227 22.6139 44.3317 22.2446 43.8486C20.1781 41.144 19.0859 37.9112 19.0859 34.5002C19.0859 26.0004 26.001 19.0853 34.5008 19.0853C43.0006 19.0853 49.9157 26.0002 49.9157 34.5C49.9157 42.9998 43.0006 49.9149 34.5008 49.9149C31.0897 49.9149 27.8569 48.8226 25.1523 46.7561C24.6692 46.3869 23.9781 46.4796 23.6087 46.9626C23.2395 47.4459 23.3321 48.1368 23.8152 48.5059C26.9073 50.8684 30.6023 52.117 34.5008 52.117C44.2148 52.117 52.1177 44.2139 52.1177 34.5C52.1177 24.7861 44.2148 16.8831 34.5008 16.8831Z" fill="black"/>
<path d="M34.5006 11.0106C21.5484 11.0106 11.0112 21.5479 11.0112 34.5C11.0112 47.452 21.5484 57.9894 34.5006 57.9894C47.4528 57.9894 57.99 47.452 57.99 34.5C57.99 21.5479 47.4527 11.0106 34.5006 11.0106ZM34.5006 55.7872C22.7628 55.7872 13.2134 46.2377 13.2134 34.5C13.2134 22.7623 22.7629 13.2128 34.5006 13.2128C46.2383 13.2128 55.7879 22.7622 55.7879 34.5C55.7879 46.2378 46.2384 55.7872 34.5006 55.7872Z" fill="black"/>
<path d="M44.1233 25.635C44.0189 25.2683 43.7323 24.9816 43.3656 24.8773C42.0675 24.5079 40.7478 24.3206 39.4427 24.3206C36.1257 24.3206 33.08 25.5396 30.8666 27.753C27.8727 30.7469 26.7591 35.1423 27.8265 39.6168L25.157 42.2862C24.727 42.7164 24.727 43.4135 25.1569 43.8436C25.372 44.0585 25.6539 44.1661 25.9356 44.1661C26.2174 44.1661 26.4991 44.0587 26.7142 43.8436L29.3841 41.1737C30.4758 41.4333 31.5786 41.5663 32.6715 41.5663C35.9884 41.5663 39.0342 40.3472 41.2475 38.134C44.3831 34.9984 45.4581 30.3258 44.1233 25.635ZM39.6901 36.5769C37.8928 38.3744 35.4003 39.3642 32.672 39.3642C32.2088 39.3642 31.7436 39.3358 31.2777 39.28L39.9497 30.608C40.3797 30.1779 40.3797 29.4808 39.9497 29.0509C39.5195 28.6209 38.8225 28.6209 38.3925 29.0509L29.719 37.7243C29.3276 34.4989 30.2834 31.4504 32.4234 29.31C34.2208 27.5125 36.7136 26.5227 39.4423 26.5227C40.3435 26.5227 41.2553 26.6292 42.1608 26.8398C43.0249 30.5429 42.1212 34.1458 39.6901 36.5769Z" fill="black"/>
<path d="M9.90959 11.0106C9.30139 11.0106 8.80855 11.5036 8.80855 12.1117V19.0851H6.60648V12.1117C6.60648 11.5036 6.11364 11.0106 5.50545 11.0106C4.89725 11.0106 4.40441 11.5036 4.40441 12.1117V19.0851H2.20207V12.1117C2.20207 11.5036 1.70923 11.0106 1.10104 11.0106C0.492838 11.0106 0 11.5036 0 12.1117V23.1223C0 24.8591 0.829752 26.4928 2.20207 27.5251V54.6861C2.20207 56.5076 3.68395 57.9894 5.50531 57.9894C7.32667 57.9894 8.80855 56.5076 8.80855 54.6861V27.5251C10.1809 26.4928 11.0106 24.8591 11.0106 23.1223V12.1117C11.0106 11.5036 10.5178 11.0106 9.90959 11.0106ZM8.80855 23.1223C8.80855 24.2969 8.17542 25.3929 7.15592 25.9828C6.81591 26.1797 6.60648 26.5429 6.60648 26.9359V54.686C6.60648 55.2933 6.11256 55.787 5.50545 55.787C4.89833 55.787 4.40441 55.2931 4.40441 54.686V26.936C4.40441 26.543 4.19485 26.18 3.85497 25.9831C2.83547 25.3931 2.20234 24.297 2.20234 23.1224V21.2873H8.80869V23.1223H8.80855Z" fill="black"/>
<path d="M64.5957 11.0106C62.1672 11.0106 60.1914 12.9864 60.1914 15.4149V32.6649C60.1914 35.0934 62.1672 37.0692 64.5957 37.0692H66.7978V54.6861C66.7978 55.2934 66.3038 55.7872 65.6967 55.7872C65.0895 55.7872 64.5957 55.2933 64.5957 54.686L64.5942 40.3721C64.5942 39.7641 64.1012 39.2711 63.493 39.2712C62.885 39.2712 62.3921 39.7642 62.3921 40.3724L62.3936 54.6861C62.3936 56.5076 63.8755 57.9894 65.6969 57.9894C67.5182 57.9894 69.0001 56.5076 69.0001 54.6861V15.4149C69 12.9864 67.0242 11.0106 64.5957 11.0106ZM66.7979 34.867H64.5958C63.3816 34.867 62.3937 33.8791 62.3937 32.6649V15.4149C62.3937 14.2007 63.3816 13.2128 64.5958 13.2128C65.8101 13.2128 66.7979 14.2007 66.7979 15.4149V34.867Z" fill="black"/>
</g>
<defs>
<clipPath id="clip0">
<rect width="69" height="69" fill="white"/>
</clipPath>
</defs>
</svg>
